<?xml version="1.0" encoding="UTF-8" standalone="no"?>
<!-- Created with Inkscape (http://www.inkscape.org/) -->

<svg
   width="1024"
   height="1024"
   viewBox="0 0 270.93333 270.93333"
   version="1.1"
   id="svg5"
   inkscape:version="1.2.2 (b0a8486541, 2022-12-01)"
   sodipodi:docname="sourceicon.svg"
   xml:space="preserve"
   xmlns:inkscape="http://www.inkscape.org/namespaces/inkscape"
   xmlns:sodipodi="http://sodipodi.sourceforge.net/DTD/sodipodi-0.dtd"
   xmlns="http://www.w3.org/2000/svg"
   xmlns:svg="http://www.w3.org/2000/svg"><sodipodi:namedview
     id="namedview7"
     pagecolor="#505050"
     bordercolor="#eeeeee"
     borderopacity="1"
     inkscape:showpageshadow="0"
     inkscape:pageopacity="0"
     inkscape:pagecheckerboard="0"
     inkscape:deskcolor="#505050"
     inkscape:document-units="px"
     showgrid="false"
     inkscape:zoom="0.66331437"
     inkscape:cx="232.16744"
     inkscape:cy="559.31247"
     inkscape:window-width="2560"
     inkscape:window-height="1368"
     inkscape:window-x="0"
     inkscape:window-y="432"
     inkscape:window-maximized="1"
     inkscape:current-layer="svg5" /><defs
     id="defs2" /><g
     inkscape:label="Layer 1"
     inkscape:groupmode="layer"
     id="layer1"
     transform="matrix(3.3973305,0,0,3.3973305,-376.49741,-226.36438)"><g
       id="g3852"
       inkscape:label="Icon"
       transform="matrix(1.0165279,0,0,1.0165279,-4.0540055,-1.6219994)"><circle
         style="opacity:1;fill:#c8a2c8;fill-opacity:1;stroke:none;stroke-width:0.698865;stop-color:#000000"
         id="path985"
         cx="152.23389"
         cy="106.36847"
         r="39.22612"
         inkscape:label="Background" /><path
         id="rect3640"
         style="opacity:1;fill:#ffffff;stroke-width:0.79375;stop-color:#000000;fill-opacity:1"
         d="m 130.46503,85.084604 c 2.30654,-3.93465 6.1563,-4.63814 9.52497,-4.65654 5.24832,-0.0287 14.98839,8.56041 20.78281,6.29046 -1.69177,-0.71401 -4.74657,-2.1958 -6.70199,-3.50501 5.2623,-2.10494 8.54904,-2.80304 11.63683,-2.78545 11.6298,0.0663 13.42782,15.58206 7.14385,26.844356 -0.93031,1.66733 -0.99794,3.97479 -1.20121,5.14598 -1.63792,9.43707 -1.08084,19.78561 -7.52384,21.87246 -5.85027,1.43693 -5.25846,-19.1585 -11.32887,-18.90104 -7.44142,0.31561 -6.55536,20.99153 -12.33105,18.90104 -2.75322,-0.99652 -5.5556,-5.84206 -6.37179,-15.21517 -0.28923,-3.32158 -1.19811,-6.48926 -1.57414,-9.03446 -1.19902,-8.11575 -8.02732,-14.769596 -2.05557,-24.956626 z"
         sodipodi:nodetypes="ssccssscsssss"
         inkscape:label="Tooth" /></g></g></svg>
